<svg width="256" height="256" viewBox="0 0 256 256" fill="none" xmlns="http://www.w3.org/2000/svg">
<path d="M206 12H50C26.804 12 8 30.804 8 54V202C8 225.196 26.804 244 50 244H206C229.196 244 248 225.196 248 202V54C248 30.804 229.196 12 206 12Z" fill="#001E36"/>
<path d="M58 182.88V74C57.9804 73.8483 57.9958 73.694 58.0452 73.5492C58.0945 73.4044 58.1764 73.2728 58.2846 73.1646C58.3928 73.0564 58.5244 72.9745 58.6692 72.9252C58.814 72.8758 58.9683 72.8604 59.12 72.88C67.23 72.67 76.8 72 89.28 72C104 72 114.8 75.07 121.68 81.68C125.022 84.8073 127.669 88.6033 129.447 92.8211C131.225 97.0388 132.095 101.584 132 106.16C132 118.22 127.733 127.18 119.2 133.04C110.667 138.9 99.9333 141.833 87 141.84L78 142V182.72C78.0251 182.894 78.0093 183.071 77.9539 183.238C77.8985 183.405 77.8049 183.556 77.6806 183.681C77.5564 183.805 77.4048 183.898 77.2381 183.954C77.0713 184.009 76.8939 184.025 76.72 184H59.28C58.43 184 58 183.63 58 182.88ZM78 87.62V127C78 127 82.56 126.82 88 126.82C95.1533 126.82 100.94 125.247 105.36 122.1C109.78 118.953 111.993 113.8 112 106.64C112 100.347 110.053 95.4933 106.16 92.08C102.267 88.6667 96.64 86.9733 89.28 87C87.47 87 85.68 87 83.92 87.08C82.16 87.16 80.72 87.16 79.6 87.16C78.48 87.16 77.88 87.12 78 87.62ZM198 158C198 170.25 190 176 190 176V175.94C189.52 176.41 189 176.85 188.49 177.28C182.983 181.76 175.54 184 166.16 184C156.78 184 149.113 182.273 143.16 178.82C142.831 178.705 142.551 178.481 142.369 178.183C142.187 177.886 142.113 177.535 142.16 177.19V162.12C142.145 161.95 142.174 161.779 142.244 161.623C142.314 161.467 142.423 161.332 142.56 161.23C142.669 161.152 142.802 161.117 142.935 161.131C143.068 161.146 143.191 161.21 143.28 161.31C149.626 166.297 157.449 169.033 165.52 169.09C169.247 169.09 172.1 168.423 174.08 167.09C174.993 166.546 175.749 165.774 176.275 164.85C176.8 163.927 177.078 162.883 177.08 161.82C177.101 160.747 176.899 159.682 176.486 158.692C176.073 157.702 175.458 156.809 174.68 156.07C173.08 154.497 169.933 152.793 165.24 150.96C156.7 147.627 150.753 144.033 147.4 140.18C143.851 136.319 141.918 131.244 142 126C142.002 122.738 142.703 119.514 144.055 116.545C145.407 113.577 147.38 110.932 149.84 108.79C154.847 104.25 161.993 101.98 171.28 101.98C179.947 101.98 186.613 103.17 191.28 105.55C191.81 105.87 192.08 106.55 192.08 107.65V121.1C192.08 122.4 191.6 122.72 190.64 122.1C185.077 118.445 178.576 116.476 171.92 116.43C168.18 116.43 165.44 117.14 163.68 118.54C162.879 119.108 162.223 119.857 161.764 120.726C161.306 121.594 161.058 122.558 161.04 123.54C161.037 124.501 161.235 125.452 161.62 126.332C162.006 127.211 162.571 128.001 163.28 128.65C164.773 130.11 167.92 131.81 172.72 133.75C181.093 137.023 187.093 140.463 190.72 144.07L190.81 144.16C194.54 147.59 198 152.31 198 158Z" fill="#31A8FF"/>
</svg>
