<svg width="256" height="256" viewBox="0 0 256 256" fill="none" xmlns="http://www.w3.org/2000/svg">
<path d="M206 12H50C26.804 12 8 30.804 8 54V202C8 225.196 26.804 244 50 244H206C229.196 244 248 225.196 248 202V54C248 30.804 229.196 12 206 12Z" fill="#330000"/>
<path d="M128.79 156H93L83.76 182.68C83.6533 183.56 83.0967 184 82.09 184H65.29C64.17 184 63.78 183.45 64.12 182.35L96.54 86.06C97.4556 83.1282 97.9077 80.0714 97.88 77C97.8619 76.8644 97.8753 76.7265 97.9191 76.5969C97.963 76.4673 98.0361 76.3496 98.1328 76.2528C98.2296 76.1561 98.3473 76.083 98.4769 76.0391C98.6065 75.9953 98.7444 75.9819 98.88 76H122.4C123.08 76 123.47 76.28 123.58 76.82L159.86 182.52C160.2 183.52 159.92 184 159.02 184H140.21C139.862 184.021 139.516 183.937 139.216 183.758C138.917 183.58 138.678 183.316 138.53 183L128.79 156ZM97 138H124.88C124.21 136.53 111.67 96.07 110.77 92.66H110.61L97 138ZM179.91 96C178.333 96.0674 176.759 95.8181 175.28 95.2667C173.801 94.7154 172.448 93.8732 171.3 92.79C170.177 91.648 169.303 90.2848 168.735 88.787C168.167 87.2893 167.917 85.6897 168 84.09C167.926 82.47 168.188 80.8522 168.772 79.3391C169.356 77.8259 170.247 76.4506 171.39 75.3C172.547 74.1984 173.913 73.3391 175.407 72.7724C176.901 72.2058 178.493 71.9432 180.09 72C181.69 71.9167 183.289 72.167 184.787 72.7352C186.285 73.3033 187.648 74.1767 188.79 75.3C189.883 76.4777 190.73 77.8619 191.282 79.3713C191.833 80.8807 192.077 82.4849 192 84.09C192.083 85.6897 191.833 87.2893 191.265 88.787C190.697 90.2848 189.823 91.648 188.7 92.79C187.522 93.8832 186.138 94.7303 184.629 95.2815C183.119 95.8327 181.515 96.077 179.91 96ZM170 182.5V105.34C169.973 105.158 169.989 104.972 170.047 104.797C170.105 104.622 170.203 104.463 170.333 104.333C170.463 104.203 170.622 104.105 170.797 104.047C170.972 103.989 171.158 103.973 171.34 104H188.66C188.842 103.975 189.027 103.993 189.201 104.051C189.375 104.11 189.533 104.208 189.662 104.338C189.792 104.467 189.89 104.625 189.949 104.799C190.007 104.973 190.025 105.158 190 105.34V182.66C190.027 182.842 190.011 183.028 189.953 183.203C189.895 183.378 189.797 183.537 189.667 183.667C189.537 183.797 189.378 183.895 189.203 183.953C189.028 184.011 188.842 184.027 188.66 184H171.5C171.296 184.028 171.089 184.009 170.894 183.943C170.699 183.878 170.522 183.768 170.377 183.623C170.232 183.478 170.122 183.301 170.057 183.106C169.991 182.911 169.972 182.704 170 182.5Z" fill="#FF9A00"/>
</svg>
