<svg width="128" height="128" viewBox="0 0 128 128" fill="none" xmlns="http://www.w3.org/2000/svg">
<path d="M126.671 98.4397C122.111 99.5997 119.291 98.4897 116.761 94.6897C111.081 86.1797 104.811 78.0597 98.7608 69.7897C97.9808 68.7197 97.1708 67.6697 96.1608 66.3397C89.0008 75.9997 81.8508 85.1997 75.1408 94.7697C72.7408 98.1897 70.2208 99.6797 65.7408 98.4697L92.6608 62.3397L67.6008 29.7097C71.9108 28.8697 74.8908 29.2997 77.5308 33.1597C83.3608 41.6797 89.7908 49.7897 96.2008 58.3697C102.651 49.8197 109.001 41.6997 115.001 33.2597C117.411 29.8397 120.001 28.5397 124.331 29.7997C121.051 34.1497 117.841 38.4297 114.611 42.6797C110.251 48.4097 105.971 54.2097 101.451 59.8197C99.8408 61.8197 100.101 63.1197 101.541 65.0097C109.901 75.9997 118.161 87.0997 126.671 98.4397ZM1.33078 61.7397C2.05078 58.1297 2.53078 54.4497 3.53078 50.9097C9.53078 29.4797 34.1308 20.5697 51.0308 33.8497C60.9308 41.6397 63.3908 52.6197 62.9008 64.9997H7.10078C6.26078 87.2097 22.2508 100.62 42.6308 93.7797C49.7808 91.3797 53.9908 85.7797 56.1008 78.7797C57.1708 75.2697 58.9408 74.7197 62.2408 75.7197C60.5508 84.4797 56.7208 91.7997 48.7208 96.3797C36.7208 103.24 19.5908 101.02 10.5808 91.4897C5.26078 85.8897 3.00078 78.9197 2.00078 71.3897C1.85078 70.1897 1.54078 69.0097 1.30078 67.8197C1.32078 65.793 1.33078 63.7663 1.33078 61.7397ZM7.20078 60.2497H57.6308C57.3008 44.1897 47.3008 32.7797 33.6308 32.6797C18.6308 32.5597 7.85078 43.6997 7.20078 60.2497Z" fill="black"/>
</svg>
