<svg width="128" height="128" viewBox="0 0 128 128" fill="none" xmlns="http://www.w3.org/2000/svg">
<path fill-rule="evenodd" clip-rule="evenodd" d="M87.2598 100.139C87.4288 99.8142 87.5908 99.5273 87.7288 99.2303C87.8158 99.0403 87.9498 99.0023 88.1388 99.0073C89.2718 99.0393 90.4048 99.0742 91.5388 99.0852C92.5018 99.0952 93.4668 99.0773 94.4308 99.0663C95.5168 99.0533 96.6028 98.9962 97.6878 99.0272C99.1328 99.0692 100.541 99.3523 101.848 99.9953C103.409 100.764 104.59 101.935 105.395 103.478C105.909 104.463 106.207 105.508 106.326 106.618C106.498 108.226 106.385 109.797 105.875 111.335C105.243 113.241 104.043 114.7 102.376 115.793C101.093 116.634 99.6858 117.131 98.1778 117.415C96.5818 117.716 94.9808 117.619 93.3798 117.624C91.6238 117.631 89.8688 117.593 88.1128 117.573C87.8058 117.57 87.7618 117.512 87.8428 117.219L87.9178 116.949C88.0888 116.411 88.1808 116.387 88.7268 116.297C89.1048 116.236 89.4968 116.094 89.8138 115.884C89.9978 115.762 90.0738 115.444 90.1458 115.199C90.2078 114.985 90.2108 114.75 90.2128 114.524C90.2378 111.099 90.2638 107.675 90.2778 104.252C90.2808 103.387 90.2608 102.52 90.2128 101.656C90.1788 101.051 89.8558 100.637 89.1358 100.494C88.5758 100.383 88.0118 100.297 87.4488 100.198L87.2598 100.139ZM103.336 108.432C103.26 107.75 103.223 107.062 103.101 106.39C102.809 104.777 102.103 103.372 100.863 102.271C98.8578 100.492 96.4438 100.218 93.9138 100.43C93.3378 100.478 93.2138 100.675 93.2048 101.267C93.1908 102.107 93.1768 102.947 93.1758 103.787C93.1718 106.451 93.1718 109.115 93.1758 111.779C93.1768 112.537 93.1848 113.295 93.2068 114.051C93.2308 114.825 93.5118 115.48 94.2698 115.78C95.4648 116.253 96.7218 116.309 97.9758 116.116C99.9788 115.809 101.38 114.642 102.32 112.893C103.064 111.505 103.274 109.99 103.336 108.432ZM108.205 117.503C108.181 117.088 108.351 116.745 108.561 116.43C108.618 116.345 108.814 116.349 108.949 116.322L110.095 116.095C110.5 116.009 110.713 115.737 110.77 115.34C110.808 115.078 110.844 114.813 110.847 114.548C110.872 112.451 110.896 110.354 110.906 108.257C110.916 106.157 110.908 104.057 110.908 101.957L110.899 101.556C110.858 100.881 110.532 100.531 109.862 100.432L108.409 100.211C108.23 100.187 108.165 100.101 108.23 99.9423C108.342 99.6713 108.449 99.3903 108.607 99.1463C108.666 99.0563 108.865 99.0213 108.999 99.0243C109.693 99.0343 110.387 99.0862 111.081 99.0852L117.122 99.0493C118.286 99.0483 119.41 99.2512 120.454 99.8082C121.603 100.42 122.246 101.367 122.43 102.657C122.622 104.012 122.211 105.154 121.221 106.061C120.814 106.435 120.287 106.679 119.815 106.983L119.661 107.079C120.099 107.24 120.516 107.379 120.922 107.545C122.11 108.032 123.055 108.793 123.555 110.008C123.95 110.967 123.95 111.967 123.716 112.961C123.352 114.517 122.327 115.552 120.994 116.335C119.743 117.07 118.389 117.498 116.947 117.57C115.617 117.637 114.281 117.612 112.948 117.627L112.176 117.631C110.892 117.602 109.607 117.569 108.322 117.535L108.205 117.503ZM113.742 111.414H113.755C113.755 112.072 113.746 112.73 113.758 113.388C113.766 113.814 113.751 114.252 113.843 114.662C113.981 115.275 114.261 115.828 114.949 116.004C115.878 116.243 116.827 116.291 117.767 116.128C118.944 115.923 119.883 115.333 120.398 114.212C120.78 113.379 120.837 112.496 120.706 111.594C120.532 110.406 119.901 109.544 118.852 108.979C118.164 108.608 117.43 108.381 116.648 108.351C115.772 108.318 114.895 108.316 114.019 108.289C113.773 108.282 113.739 108.407 113.74 108.609C113.745 109.543 113.742 110.478 113.742 111.414ZM115.607 106.939C116.086 106.915 116.628 106.908 117.167 106.854C118.199 106.751 118.926 106.232 119.305 105.245C119.498 104.744 119.49 104.228 119.495 103.707C119.51 102.35 118.718 101.238 117.429 100.778C116.434 100.423 115.408 100.417 114.376 100.445C113.958 100.456 113.771 100.639 113.765 101.06L113.703 106.549C113.7 106.767 113.794 106.861 114.006 106.868L115.607 106.939Z" fill="#94795D"/>
<path fill-rule="evenodd" clip-rule="evenodd" d="M10.5435 116.448L10.4705 117.392C9.79047 117.392 9.16347 117.387 8.53647 117.394C7.35547 117.406 6.17447 117.425 4.99247 117.442L4.87847 117.449C4.70947 117.429 4.40247 117.429 4.39447 117.379C4.34447 117.098 4.36047 116.803 4.37347 116.512C4.37447 116.479 4.48947 116.437 4.55647 116.421L5.47547 116.216C6.04847 116.067 6.25047 115.82 6.27747 115.228C6.30847 114.561 6.33947 113.893 6.34247 113.226C6.35147 111.584 6.34147 109.944 6.34847 108.302C6.34947 107.918 6.21647 107.632 5.85847 107.476C5.43247 107.288 5.00447 107.104 4.57347 106.93C4.36947 106.848 4.10447 106.803 4.12847 106.529C4.15247 106.25 4.40947 106.177 4.65147 106.122C5.65347 105.893 6.65647 105.67 7.65547 105.426C7.97747 105.347 8.28547 105.214 8.67047 105.08C8.69047 105.288 8.72747 105.486 8.72347 105.684L8.66447 106.625C8.66347 106.731 8.71847 106.873 8.79747 106.932C8.84547 106.969 9.00647 106.902 9.08647 106.84C9.94047 106.19 10.8445 105.629 11.8755 105.302C13.4725 104.795 14.8435 105.265 15.8035 106.642C16.1415 107.127 16.1425 107.127 16.6115 106.788C17.4165 106.203 18.2585 105.687 19.2005 105.347C21.2685 104.6 23.2555 105.548 23.9745 107.631C24.2365 108.387 24.3365 109.168 24.3345 109.966L24.3155 115.264C24.3145 115.701 24.4595 115.95 24.8755 116.086C25.3425 116.239 25.8265 116.344 26.3525 116.482L26.2305 117.393C25.6325 117.393 25.0825 117.389 24.5325 117.394C23.1885 117.406 21.8445 117.413 20.5015 117.444C20.2675 117.45 20.2065 117.392 20.1945 117.173C20.1555 116.472 20.1495 116.473 20.8095 116.315L21.0315 116.258C21.6765 116.082 21.8915 115.884 21.8965 115.23C21.9115 113.352 21.9505 111.469 21.8555 109.595C21.7565 107.651 20.2135 106.616 18.3295 107.114C17.7145 107.276 17.1575 107.56 16.6395 107.928C16.4645 108.053 16.4315 108.197 16.4455 108.416C16.4985 109.244 16.5315 110.073 16.5385 110.902C16.5505 112.353 16.5325 113.804 16.5385 115.256C16.5405 115.844 16.7415 116.069 17.3225 116.205L18.1855 116.404L18.3455 116.44C18.3575 116.716 18.3685 116.992 18.3555 117.268C18.3475 117.441 18.2135 117.456 18.0635 117.453C17.2245 117.432 16.3845 117.404 15.5455 117.406C14.5245 117.408 13.5045 117.437 12.4845 117.455H12.2445C12.2445 117.162 12.2305 116.882 12.2545 116.603C12.2595 116.536 12.3775 116.442 12.4585 116.421L13.4645 116.208C13.8915 116.103 14.0955 115.884 14.1195 115.45C14.2335 113.44 14.3155 111.429 14.1265 109.42C14.0895 109.03 13.9625 108.634 13.8005 108.275C13.2855 107.137 12.1265 106.662 10.7895 107.004C10.1545 107.166 9.58147 107.457 9.03947 107.824C8.78347 107.998 8.66147 108.228 8.66147 108.519C8.66147 110.524 8.66847 112.529 8.67447 114.533L8.68547 115.306C8.69747 115.845 8.92647 116.129 9.46147 116.245C9.80547 116.323 10.1535 116.376 10.5435 116.448Z" fill="#50382B"/>
<path fill-rule="evenodd" clip-rule="evenodd" d="M71.0012 105.285C71.1562 106.039 71.1532 106.717 70.5992 107.231C70.0492 107.742 69.3532 107.57 68.6742 107.456C68.7372 107.814 68.8072 108.118 68.8412 108.426C69.0882 110.715 68.1032 112.414 65.9802 113.385C65.1782 113.751 64.3272 113.887 63.4582 113.957C63.0262 113.991 62.6482 114.321 62.6072 114.676C62.5652 115.036 62.7912 115.406 63.2432 115.514C63.7762 115.641 64.3322 115.677 64.8792 115.74C66.0532 115.874 67.2402 115.935 68.4002 116.145C70.1542 116.461 71.1332 117.992 70.8242 119.754C70.5492 121.322 69.6412 122.463 68.3752 123.338C66.2422 124.816 63.9022 125.248 61.4102 124.494C59.9852 124.062 58.9802 123.125 58.6332 121.609C58.4592 120.85 58.6442 120.163 59.2152 119.648C59.8942 119.038 60.6332 118.494 61.3442 117.918L61.5742 117.687L61.3102 117.502C60.5852 117.158 60.0052 116.687 59.7802 115.869C59.7032 115.592 59.7832 115.41 60.0182 115.268C60.4182 115.027 60.8162 114.782 61.2112 114.533C61.3972 114.417 61.5812 114.297 61.7542 114.163C61.9902 113.983 61.9692 113.849 61.6872 113.745C61.0312 113.503 60.4482 113.152 59.9962 112.612C59.2412 111.711 59.0272 110.638 59.0892 109.505C59.1862 107.735 60.1472 106.569 61.7092 105.819C63.5662 104.928 65.4292 104.872 67.3222 105.684C68.0222 105.984 68.7602 106.048 69.5112 105.996C70.0722 105.956 70.5622 105.744 71.0012 105.285ZM64.1582 117.966C62.7642 117.954 62.3272 118.126 61.5092 118.959C60.5932 119.893 60.5982 121.188 61.5122 122.126C62.2062 122.837 63.0722 123.17 64.0352 123.27C65.1602 123.386 66.2682 123.339 67.2902 122.776C68.3802 122.173 68.9222 121.053 68.6772 119.925C68.4742 118.994 67.7882 118.568 66.9532 118.323C66.0032 118.045 65.0212 117.992 64.1582 117.966ZM61.4202 109.058C61.4712 109.445 61.4922 109.837 61.5782 110.216C61.8012 111.198 62.2282 112.061 63.2052 112.498C64.3522 113.013 65.8172 112.792 66.3192 111.182C66.6632 110.079 66.6212 108.984 66.2062 107.908C66.0212 107.428 65.7232 107.022 65.2962 106.724C64.3002 106.029 62.5032 105.937 61.7712 107.473C61.5332 107.972 61.4402 108.503 61.4202 109.058Z" fill="#4F382B"/>
<path fill-rule="evenodd" clip-rule="evenodd" d="M47.3501 105.038C47.3871 105.209 47.4611 105.403 47.4631 105.598C47.4661 105.969 47.4261 106.34 47.4051 106.711V107.033L47.7191 106.793C48.5791 106.085 49.5031 105.482 50.5791 105.157C52.5211 104.572 54.4611 105.635 55.0941 107.613C55.3341 108.365 55.4291 109.138 55.4381 109.924C55.4581 111.67 55.4701 113.416 55.4881 115.162C55.4941 115.789 55.5661 115.901 56.1591 116.082C56.4951 116.185 56.8421 116.257 57.1891 116.311C57.3801 116.341 57.4621 116.416 57.4521 116.603L57.4541 116.775C57.4471 117.498 57.3971 117.531 56.6961 117.529C55.0181 117.526 53.3411 117.536 51.6631 117.55C51.1631 117.554 51.1621 117.569 51.1121 117.075L51.1021 116.791C51.1331 116.365 51.1431 116.369 51.5621 116.307C51.8441 116.265 52.1241 116.2 52.3991 116.128C52.6821 116.055 52.8181 115.846 52.8561 115.566C52.8751 115.424 52.9001 115.282 52.8991 115.14C52.8751 113.232 52.9061 111.322 52.8021 109.417C52.7181 107.876 51.5421 106.958 49.9951 107.063C49.2361 107.116 48.5501 107.369 47.9241 107.806C47.5111 108.095 47.4281 108.512 47.4301 108.961C47.4381 110.745 47.4551 112.529 47.4741 114.314C47.4781 114.705 47.4891 115.096 47.5261 115.484C47.5651 115.908 47.7141 116.079 48.1301 116.171C48.5281 116.259 48.9341 116.31 49.3591 116.381L49.3951 116.709C49.4091 117.474 49.3291 117.531 48.5861 117.528C46.8511 117.521 45.1161 117.532 43.3821 117.551C43.1091 117.555 42.9931 117.469 43.0001 117.203L42.9961 117.089C42.9511 116.4 42.9711 116.374 43.6231 116.262L43.9311 116.2C44.6371 116.041 44.8181 115.853 44.8281 115.136C44.8611 112.865 44.8731 110.595 44.8961 108.324C44.8991 107.998 44.7761 107.745 44.4721 107.61C44.0461 107.422 43.6161 107.243 43.1851 107.066C42.9471 106.968 42.6751 106.906 42.6661 106.577C42.6601 106.345 42.9081 106.14 43.2471 106.071C43.9281 105.933 44.6151 105.818 45.2881 105.649C45.9581 105.482 46.6161 105.258 47.3501 105.038Z" fill="#4F372B"/>
<path fill-rule="evenodd" clip-rule="evenodd" d="M84.8645 110.97C84.8325 113.091 84.2815 114.806 82.7815 116.093C80.8815 117.726 77.9175 118.281 75.4945 117.06C74.4605 116.539 73.7005 115.74 73.2055 114.703C72.4465 113.108 72.2565 111.431 72.6525 109.713C73.0445 108.014 74.0735 106.783 75.6135 105.986C77.1975 105.167 78.8655 104.847 80.6245 105.277C82.8495 105.82 84.4485 107.634 84.7665 109.944C84.8235 110.349 84.8455 110.759 84.8645 110.97ZM82.2875 112.119L82.2015 112.109C82.2015 111.909 82.2125 111.709 82.1995 111.509C82.1265 110.263 81.8465 109.076 81.1245 108.033C80.4395 107.045 79.5065 106.462 78.2925 106.377C76.9335 106.281 75.7915 107.041 75.3905 108.429C74.7885 110.513 74.9925 112.544 76.0505 114.453C76.5115 115.285 77.1945 115.899 78.1095 116.222C79.9025 116.853 81.4925 116.036 81.9595 114.2C82.1315 113.522 82.1815 112.813 82.2875 112.119Z" fill="#4F382B"/>
<path fill-rule="evenodd" clip-rule="evenodd" d="M40.8188 111.134C40.7818 112.656 40.4228 114.063 39.4828 115.286C38.4758 116.596 37.0918 117.296 35.5178 117.591C33.6568 117.939 31.9088 117.623 30.4138 116.374C29.7038 115.78 29.2188 115.019 28.8988 114.153C28.3738 112.733 28.2428 111.278 28.5658 109.795C28.9108 108.208 29.8068 106.995 31.1958 106.181C32.8018 105.242 34.5348 104.823 36.3858 105.245C38.7658 105.789 40.1398 107.34 40.6478 109.688C40.7498 110.162 40.7638 110.652 40.8188 111.134ZM38.2128 112.138L38.1438 112.128V111.842C38.1048 110.446 37.8318 109.116 36.9988 107.956C36.3818 107.095 35.5558 106.555 34.4968 106.404C32.7708 106.158 31.6428 107.182 31.2688 108.573C30.7808 110.39 30.9338 112.185 31.6888 113.908C32.1598 114.982 32.9038 115.819 34.0468 116.225C35.8288 116.858 37.4428 116.02 37.8938 114.191C38.0598 113.522 38.1098 112.824 38.2128 112.138Z" fill="#4F372B"/>
<path fill-rule="evenodd" clip-rule="evenodd" d="M82.3621 33.5439C83.5891 37.0909 84.4711 40.7119 84.7621 44.4639C85.1221 49.1199 84.9581 53.7439 83.9761 58.3229L83.8501 58.6889C83.5421 58.6899 83.2281 58.6509 82.9271 58.6979C80.3841 59.0979 77.8441 59.5119 75.3031 59.9239C72.6761 60.3499 70.0471 60.7589 67.4251 61.2129C66.4961 61.3729 65.3461 61.1819 64.9711 62.4659L64.7911 62.5269L64.9181 54.8489L64.7891 36.3229L66.0131 36.1129C68.0141 35.7859 70.0151 35.4529 72.0191 35.1339C74.4091 34.7549 76.8011 34.3849 79.1931 34.0149C80.2491 33.8529 81.3061 33.7019 82.3621 33.5439Z" fill="#439934"/>
<path fill-rule="evenodd" clip-rule="evenodd" d="M62.2659 84.9109C60.9749 83.8009 59.6389 82.7399 58.4019 81.5719C51.7439 75.2919 46.8729 67.8989 44.4739 58.9859C43.8129 56.5339 43.3729 54.0409 43.2309 51.5069C43.1309 49.7329 42.9879 47.9439 43.1139 46.1789C43.4469 41.4859 44.1259 36.8379 45.5019 32.3169L45.5779 32.2119C45.7119 32.3899 45.9039 32.5479 45.9719 32.7489C47.3159 36.7049 48.6489 40.6649 49.9759 44.6279C54.1449 57.0789 58.3089 69.5329 62.4849 81.9819C62.5669 82.2249 62.7779 82.4239 62.9299 82.6429L62.2659 84.9109Z" fill="#45A538"/>
<path fill-rule="evenodd" clip-rule="evenodd" d="M82.3611 33.5436C81.3041 33.7006 80.2471 33.8526 79.1921 34.0146C76.8001 34.3846 74.4081 34.7546 72.0181 35.1336C70.0151 35.4516 68.0141 35.7846 66.0121 36.1126L64.7881 36.3227L64.7781 35.5247C64.7371 34.8687 64.6691 34.2126 64.6601 33.5566L64.5231 21.0026C64.4911 18.3836 64.4431 15.7646 64.3901 13.1466C64.3571 11.5196 64.3221 9.89165 64.2491 8.26665C64.2091 7.39365 64.0681 6.52465 64.0121 5.65165C63.9791 5.14965 64.0231 4.64365 64.0341 4.13965C64.6581 5.34865 65.2691 6.56665 65.9101 7.76665C66.9231 9.66365 68.5381 11.0616 69.9931 12.5866C75.7391 18.6176 79.8181 25.6256 82.3611 33.5436Z" fill="#46A037"/>
<path fill-rule="evenodd" clip-rule="evenodd" d="M64.7922 62.527L64.9722 62.466C65.3472 61.182 66.4972 61.373 67.4262 61.213C70.0482 60.759 72.6772 60.35 75.3042 59.924C77.8452 59.513 80.3852 59.099 82.9282 58.698C83.2292 58.651 83.5432 58.69 83.8512 58.689C83.3762 60.385 83.0022 62.118 82.3992 63.767C81.7142 65.637 80.8862 67.463 80.0072 69.253C78.6932 71.928 77.0562 74.424 75.1542 76.711C73.6882 78.473 72.0542 80.104 70.4172 81.713C69.5112 82.602 68.4452 83.327 67.4512 84.127L67.1932 83.951L66.2662 83.159L65.3072 81.055C64.6462 78.593 64.3002 76.087 64.2422 73.539L64.2602 73.111L64.3912 71.257C64.4342 70.624 64.4922 69.992 64.5192 69.359C64.6152 67.083 64.7012 64.805 64.7922 62.527Z" fill="#409433"/>
<path fill-rule="evenodd" clip-rule="evenodd" d="M64.7912 62.5271C64.7012 64.8051 64.6152 67.0841 64.5182 69.3621C64.4912 69.9961 64.4342 70.6281 64.3902 71.2601L63.8062 71.4811C62.5082 67.6601 61.2092 63.8791 59.9392 60.0891C57.8382 53.8181 55.7632 47.5381 53.6652 41.2651C51.9722 36.2031 50.2642 31.1441 48.5472 26.0891C48.4662 25.8531 48.2362 25.6671 48.0762 25.4581L51.8162 18.5811C51.9452 18.8041 52.1142 19.0131 52.1952 19.2531C53.9252 24.3731 55.6522 29.4941 57.3642 34.6201C59.5922 41.2901 61.8052 47.9631 64.0312 54.6341C64.1202 54.9001 64.2662 55.1461 64.4062 55.4451L64.9182 54.8491C64.8752 57.4091 64.8332 59.9671 64.7912 62.5271Z" fill="#4FAA41"/>
<path fill-rule="evenodd" clip-rule="evenodd" d="M48.0762 25.458C48.2372 25.667 48.4672 25.853 48.5472 26.089C50.2642 31.144 51.9722 36.202 53.6652 41.265C55.7632 47.538 57.8382 53.818 59.9392 60.089C61.2092 63.879 62.5082 67.659 63.8062 71.481L64.3902 71.26L64.2592 73.114L64.1402 73.541C63.9372 75.57 63.7662 77.603 63.5182 79.628C63.3942 80.643 63.1292 81.639 62.9282 82.643C62.7772 82.424 62.5652 82.225 62.4832 81.982C58.3062 69.533 54.1432 57.079 49.9742 44.628C48.6472 40.665 47.3132 36.705 45.9702 32.749C45.9022 32.548 45.7102 32.39 45.5762 32.212L48.0762 25.458Z" fill="#4AA73C"/>
<path fill-rule="evenodd" clip-rule="evenodd" d="M64.9184 54.8491L64.4064 55.4451C64.2664 55.1461 64.1204 54.9001 64.0314 54.6341C61.8054 47.9631 59.5924 41.2901 57.3644 34.6201C55.6524 29.4941 53.9254 24.3731 52.1954 19.2531C52.1144 19.0131 51.9454 18.8041 51.8164 18.5811L56.4414 12.4971C56.5874 12.6911 56.7954 12.8641 56.8704 13.0831C58.1544 16.8431 59.4264 20.6061 60.6924 24.3721C61.8744 27.8901 63.0384 31.4121 64.2344 34.9241C64.3144 35.1591 64.5934 35.3251 64.7794 35.5251L64.7894 36.3231L64.9184 54.8491Z" fill="#57AE47"/>
<path fill-rule="evenodd" clip-rule="evenodd" d="M64.7794 35.5246C64.5924 35.3256 64.3144 35.1596 64.2344 34.9236C63.0394 31.4116 61.8744 27.8896 60.6924 24.3716C59.4264 20.6056 58.1544 16.8426 56.8704 13.0826C56.7954 12.8636 56.5874 12.6906 56.4414 12.4966C57.9454 11.0236 59.4024 9.49763 60.9674 8.09263C62.3584 6.84463 63.4764 5.50662 63.5284 3.53362L63.6384 3.14062L64.0344 4.13862C64.0244 4.64262 63.9794 5.14863 64.0124 5.65062C64.0694 6.52363 64.2104 7.39262 64.2494 8.26562C64.3224 9.89062 64.3574 11.5186 64.3904 13.1456C64.4434 15.7636 64.4914 18.3826 64.5234 21.0016L64.6604 33.5556C64.6704 34.2126 64.7394 34.8686 64.7794 35.5246Z" fill="#60B24F"/>
<path fill-rule="evenodd" clip-rule="evenodd" d="M62.9287 82.6422C63.1297 81.6382 63.3947 80.6422 63.5187 79.6272C63.7667 77.6032 63.9377 75.5692 64.1407 73.5402L64.1917 73.5322L64.2417 73.5412C64.2997 76.0892 64.6457 78.5952 65.3067 81.0572C65.1717 81.2352 64.9827 81.3922 64.9107 81.5922C64.3557 83.1582 63.8317 84.7372 63.2737 86.3022C63.1977 86.5162 62.9837 86.6832 62.8347 86.8702L62.2637 84.9102L62.9287 82.6422Z" fill="#A9AA88"/>
<path fill-rule="evenodd" clip-rule="evenodd" d="M62.8359 86.8706C62.9849 86.6826 63.1989 86.5166 63.2749 86.3026C63.8329 84.7376 64.3569 83.1586 64.9119 81.5926C64.9829 81.3926 65.1729 81.2356 65.3079 81.0576L66.2669 83.1616C66.0779 83.4296 65.8159 83.6726 65.7109 83.9716L63.8749 89.3636C63.7989 89.5806 63.5419 89.7326 63.3679 89.9156L62.8359 86.8706Z" fill="#B6B598"/>
<path fill-rule="evenodd" clip-rule="evenodd" d="M63.3672 89.9151C63.5402 89.7321 63.7982 89.5801 63.8742 89.3631L65.7102 83.9711C65.8142 83.6721 66.0772 83.4291 66.2662 83.1611L67.1942 83.9521C66.7462 84.3951 66.4972 84.9071 66.6472 85.5541L66.3652 86.4771C66.2372 86.6351 66.0512 86.7731 65.9882 86.9541C65.3472 88.7901 64.7362 90.6361 64.0902 92.4711C64.0082 92.7031 63.7812 92.8861 63.6222 93.0921L63.3672 89.9151Z" fill="#C2C1A7"/>
<path fill-rule="evenodd" clip-rule="evenodd" d="M63.6215 93.0906C63.7815 92.8846 64.0085 92.7016 64.0895 92.4696C64.7355 90.6346 65.3475 88.7886 65.9875 86.9526C66.0505 86.7716 66.2365 86.6346 66.3645 86.4756L65.9755 90.7116C65.8715 90.8316 65.7215 90.9366 65.6715 91.0756L64.3775 94.7836C64.2865 95.0366 64.1125 95.2626 63.9765 95.4996C63.8555 95.3416 63.6395 95.1886 63.6295 95.0246C63.5915 94.3826 63.6185 93.7356 63.6215 93.0906Z" fill="#CECDB7"/>
<path fill-rule="evenodd" clip-rule="evenodd" d="M63.9766 95.5009C64.1126 95.2639 64.2866 95.0379 64.3776 94.7849L65.6716 91.0769C65.7216 90.9369 65.8726 90.8329 65.9756 90.7129L65.9856 93.4929L65.0546 95.8799L63.9766 95.5009Z" fill="#DBDAC7"/>
<path fill-rule="evenodd" clip-rule="evenodd" d="M65.0547 95.8802L65.9857 93.4932L66.1777 96.3172L65.0547 95.8802Z" fill="#EBE9DC"/>
<path fill-rule="evenodd" clip-rule="evenodd" d="M66.6469 85.5541C66.4979 84.9081 66.7459 84.3961 67.1939 83.9521L67.4519 84.1281L66.6469 85.5541Z" fill="#CECDB7"/>
<path fill-rule="evenodd" clip-rule="evenodd" d="M64.2416 73.5423L64.1916 73.5333L64.1406 73.5413L64.2596 73.1143L64.2416 73.5423Z" fill="#4FAA41"/>
</svg>
