<svg width="128" height="128" viewBox="0 0 128 128" fill="none" xmlns="http://www.w3.org/2000/svg">
<path d="M2.001 90.458H6.109V74.235L12.469 88.378C13.219 90.09 14.246 90.695 16.261 90.695C18.276 90.695 19.264 90.09 20.014 88.378L26.374 74.235V90.458H30.482V74.262C30.482 72.682 29.85 71.917 28.546 71.523C25.425 70.549 23.331 71.392 22.383 73.499L16.142 87.457L10.099 73.498C9.19 71.392 7.057 70.549 3.936 71.522C2.632 71.917 2 72.681 2 74.261L2.001 90.458ZM33.899 77.252H38.006V86.19C37.968 86.675 38.162 87.815 40.412 87.851C41.56 87.869 49.274 87.851 49.346 87.851V77.208H53.463C53.482 77.208 53.459 91.722 53.459 91.782C53.481 95.362 49.018 96.139 46.96 96.199H33.988V93.435C34.01 93.435 46.951 93.438 46.983 93.434C49.628 93.155 49.315 91.841 49.314 91.399V90.321H40.583C36.521 90.284 33.933 88.511 33.9 86.471C33.898 86.284 33.989 77.342 33.899 77.252Z" fill="#00618A"/>
<path d="M56.63 90.4579H68.442C69.825 90.4579 71.169 90.1689 72.235 89.6689C74.012 88.8529 74.881 87.7469 74.881 86.2969V83.2949C74.881 82.1099 73.894 81.0029 71.958 80.2669C70.931 79.8709 69.666 79.6619 68.441 79.6619H63.463C61.804 79.6619 61.014 79.1619 60.817 78.0559C60.778 77.9239 60.778 77.8189 60.778 77.6869V75.8169C60.778 75.7119 60.778 75.6059 60.817 75.4749C61.014 74.6319 61.449 74.3949 62.911 74.2629L63.306 74.2369H75.039V71.4989H63.504C61.845 71.4989 60.976 71.604 60.186 71.841C57.737 72.605 56.669 73.8159 56.669 75.9229V78.3189C56.669 80.1629 58.764 81.7429 62.279 82.1119C62.675 82.1369 63.069 82.1649 63.464 82.1649H67.731C67.889 82.1649 68.047 82.1649 68.166 82.1899C69.47 82.2949 70.022 82.5329 70.418 83.0059C70.655 83.2429 70.733 83.4809 70.733 83.7429V86.1399C70.733 86.4289 70.536 86.7979 70.141 87.1139C69.786 87.4299 69.193 87.6409 68.403 87.6939L67.968 87.7199H56.63V90.4579ZM100.511 85.6919C100.511 88.5089 102.605 90.0889 106.831 90.4059C107.226 90.4319 107.621 90.4579 108.016 90.4579H118.722V87.7199H107.938C105.528 87.7199 104.62 87.1139 104.62 85.6649V71.4969H100.512L100.511 85.6919ZM77.503 85.8339V76.0689C77.503 73.5889 79.245 72.0839 82.689 71.6089C83.045 71.5559 83.442 71.5299 83.797 71.5299H91.596C91.992 71.5299 92.348 71.5559 92.743 71.6089C96.187 72.0839 97.93 73.5879 97.93 76.0689V85.8339C97.93 87.8479 97.19 88.9239 95.485 89.6259L99.533 93.2789H94.762L91.488 90.3229L88.192 90.5319H83.797C83.045 90.5319 82.254 90.4269 81.383 90.1889C78.77 89.4769 77.503 88.1039 77.503 85.8339ZM81.937 85.5969C81.937 85.7289 81.976 85.8619 82.016 86.0199C82.253 87.1549 83.323 87.7879 84.945 87.7879H88.677L85.249 84.6929H90.02L93.009 87.3929C93.561 87.0979 93.923 86.6499 94.05 86.0729C94.089 85.9409 94.089 85.8089 94.089 85.6769V76.3089C94.089 76.2039 94.089 76.0709 94.05 75.9389C93.812 74.8829 92.743 74.2769 91.16 74.2769H84.944C83.124 74.2769 81.936 75.0689 81.936 76.3089L81.937 85.5969Z" fill="#E48E00"/>
<path d="M122.336 66.952C119.811 66.883 117.882 67.118 116.232 67.813C115.763 68.011 115.016 68.016 114.94 68.603C115.197 68.874 115.237 69.277 115.442 69.609C115.836 70.246 116.501 71.1 117.094 71.547C117.741 72.036 118.409 72.56 119.105 72.984C120.34 73.738 121.72 74.168 122.911 74.922C123.612 75.368 124.308 75.928 124.993 76.431C125.332 76.678 125.558 77.065 125.999 77.22V77.149C125.768 76.855 125.708 76.451 125.496 76.143L124.562 75.209C123.649 73.997 122.491 72.934 121.258 72.05C120.276 71.345 118.078 70.392 117.668 69.249L117.596 69.178C118.292 69.099 119.108 68.847 119.75 68.675C120.83 68.385 121.795 68.46 122.91 68.172L124.418 67.74V67.454C123.855 66.876 123.452 66.11 122.838 65.587C121.231 64.218 119.475 62.85 117.668 61.708C116.666 61.076 115.427 60.665 114.364 60.129C114.008 59.948 113.38 59.855 113.143 59.554C112.584 58.843 112.281 57.942 111.85 57.113C110.95 55.378 110.064 53.482 109.265 51.655C108.721 50.41 108.365 49.182 107.686 48.065C104.425 42.704 100.915 39.468 95.478 36.288C94.321 35.611 92.928 35.345 91.457 34.996L89.087 34.852C88.606 34.651 88.104 34.061 87.651 33.775C85.849 32.637 81.229 30.162 79.895 33.417C79.053 35.471 81.155 37.475 81.906 38.516C82.433 39.246 83.109 40.064 83.486 40.885C83.734 41.425 83.776 41.966 83.989 42.537C84.51 43.943 84.965 45.474 85.64 46.773C85.981 47.431 86.358 48.124 86.789 48.712C87.053 49.072 87.507 49.232 87.578 49.789C87.135 50.409 87.109 51.373 86.86 52.158C85.738 55.697 86.161 60.096 87.794 62.715C88.295 63.52 89.475 65.244 91.097 64.582C92.516 64.004 92.2 62.213 92.606 60.632C92.698 60.275 92.641 60.011 92.821 59.771V59.843L94.114 62.428C95.071 63.969 96.768 65.578 98.207 66.665C98.953 67.228 99.541 68.203 100.505 68.532V68.459H100.434C100.246 68.168 99.955 68.048 99.715 67.813C99.153 67.262 98.528 66.578 98.064 65.946C96.755 64.17 95.599 62.225 94.545 60.201C94.042 59.235 93.605 58.169 93.181 57.185C93.017 56.806 93.019 56.232 92.679 56.037C92.213 56.757 91.53 57.34 91.17 58.191C90.596 59.551 90.522 61.21 90.309 62.93L90.165 63.001C89.164 62.76 88.813 61.73 88.441 60.847C87.501 58.614 87.326 55.017 88.154 52.446C88.368 51.78 89.335 49.685 88.943 49.07C88.756 48.457 88.139 48.103 87.795 47.633C87.368 47.054 86.941 46.292 86.646 45.622C85.876 43.881 85.517 41.926 84.708 40.165C84.32 39.323 83.666 38.472 83.128 37.724C82.533 36.894 81.866 36.284 81.404 35.282C81.24 34.926 81.017 34.355 81.26 33.989C81.337 33.742 81.448 33.639 81.692 33.558C82.108 33.237 83.268 33.665 83.702 33.845C84.854 34.324 85.815 34.779 86.791 35.425C87.259 35.736 87.732 36.336 88.299 36.502H88.945C89.956 36.734 91.089 36.573 92.033 36.86C93.703 37.368 95.199 38.157 96.557 39.015C100.696 41.629 104.079 45.349 106.395 49.787C106.767 50.502 106.929 51.183 107.256 51.941C107.918 53.469 108.752 55.042 109.41 56.537C110.067 58.028 110.708 59.533 111.637 60.774C112.125 61.426 114.011 61.776 114.868 62.138C115.469 62.392 116.453 62.657 117.022 62.999C118.109 63.655 119.163 64.436 120.182 65.154C120.691 65.516 122.258 66.303 122.336 66.952ZM90.237 39.593C89.711 39.583 89.338 39.651 88.944 39.737V39.808H89.016C89.267 40.325 89.71 40.657 90.021 41.101L90.74 42.609L90.811 42.538C91.256 42.225 91.459 41.724 91.457 40.958C91.278 40.77 91.252 40.535 91.098 40.312C90.894 40.012 90.496 39.844 90.237 39.593Z" fill="#00618A"/>
</svg>
