<svg width="128" height="128" viewBox="0 0 128 128" fill="none" xmlns="http://www.w3.org/2000/svg">
<path d="M114.325 80.7491C114.035 80.7491 113.747 80.6731 113.493 80.5251L110.843 78.9571C110.447 78.7361 110.64 78.6571 110.771 78.6121C111.299 78.4281 111.406 78.3851 111.969 78.0671C112.028 78.0341 112.105 78.0461 112.166 78.0821L114.201 79.2911C114.275 79.3321 114.38 79.3321 114.447 79.2911L122.384 74.7101C122.459 74.6681 122.506 74.5831 122.506 74.4951V65.3351C122.506 65.2451 122.459 65.1621 122.383 65.1161L114.449 60.5391C114.375 60.4971 114.278 60.4971 114.204 60.5391L106.271 65.1171C106.195 65.1621 106.146 65.2481 106.146 65.3351V74.4951C106.146 74.5831 106.195 74.6661 106.271 74.7071L108.445 75.9641C109.625 76.5531 110.348 75.8591 110.348 75.1611V66.1161C110.348 65.9891 110.451 65.8881 110.578 65.8881H111.585C111.71 65.8881 111.814 65.9891 111.814 66.1161V75.1611C111.814 76.7351 110.957 77.6381 109.464 77.6381C109.005 77.6381 108.644 77.6381 107.636 77.1421L105.555 75.9441C105.04 75.6461 104.723 75.0901 104.723 74.4961V65.3361C104.723 64.7411 105.04 64.1861 105.555 63.8901L113.492 59.3031C113.994 59.0201 114.661 59.0201 115.159 59.3031L123.096 63.8901C123.61 64.1871 123.929 64.7421 123.929 65.3361V74.4961C123.929 75.0911 123.61 75.6441 123.096 75.9441L115.159 80.5261C114.907 80.6731 114.62 80.7491 114.325 80.7491ZM116.778 74.4381C113.303 74.4381 112.576 72.8431 112.576 71.5061C112.576 71.3801 112.679 71.2771 112.806 71.2771H113.832C113.947 71.2771 114.042 71.3591 114.06 71.4711C114.214 72.5161 114.677 73.0431 116.778 73.0431C118.449 73.0431 119.161 72.6651 119.161 71.7771C119.161 71.2651 118.959 70.8861 116.361 70.6311C114.189 70.4161 112.846 69.9371 112.846 68.1981C112.846 66.5971 114.196 65.6411 116.458 65.6411C119.001 65.6411 120.259 66.5241 120.418 68.4181C120.424 68.4821 120.401 68.5451 120.358 68.5941C120.314 68.6391 120.254 68.6671 120.19 68.6671H119.159C119.052 68.6671 118.958 68.5921 118.936 68.4881C118.688 67.3881 118.088 67.0371 116.457 67.0371C114.632 67.0371 114.42 67.6741 114.42 68.1491C114.42 68.7261 114.67 68.8941 117.135 69.2201C119.574 69.5431 120.733 69.9991 120.733 71.7141C120.734 73.4471 119.292 74.4381 116.778 74.4381Z" fill="#83CD29"/>
<path d="M97.9828 68.4301C98.2958 68.2471 98.4888 67.9131 98.4888 67.5501V65.1961C98.4888 64.8341 98.2968 64.5001 97.9828 64.3171L89.6188 59.4611C89.3038 59.2781 88.9158 59.2771 88.5998 59.4591L80.1838 64.3181C79.8698 64.5001 79.6758 64.8351 79.6758 65.1981V74.9141C79.6758 75.2791 79.8718 75.6171 80.1898 75.7981L88.5528 80.5631C88.8608 80.7401 89.2388 80.7411 89.5498 80.5691L94.6078 77.7571C94.7688 77.6671 94.8688 77.4991 94.8698 77.3171C94.8708 77.1331 94.7728 76.9631 94.6138 76.8721L86.1458 72.0121C85.9868 71.9211 85.8898 71.7531 85.8898 71.5721V68.5261C85.8898 68.3441 85.9868 68.1771 86.1438 68.0871L88.7808 66.5671C88.9368 66.4761 89.1308 66.4761 89.2878 66.5671L91.9248 68.0871C92.0828 68.1781 92.1798 68.3451 92.1798 68.5261V70.9221C92.1798 71.1051 92.2768 71.2731 92.4338 71.3631C92.5918 71.4541 92.7858 71.4541 92.9438 71.3621L97.9828 68.4301Z" fill="#404137"/>
<path d="M88.9835 67.9737C89.0445 67.9397 89.1185 67.9397 89.1785 67.9737L90.7935 68.9067C90.8535 68.9417 90.8905 69.0067 90.8905 69.0757V70.9407C90.8905 71.0107 90.8535 71.0747 90.7935 71.1097L89.1785 72.0417C89.1185 72.0767 89.0435 72.0767 88.9835 72.0417L87.3695 71.1097C87.3085 71.0747 87.2715 71.0107 87.2715 70.9407V69.0757C87.2715 69.0067 87.3085 68.9417 87.3695 68.9067L88.9835 67.9737Z" fill="#83CD29"/>
<path d="M67.0834 71.854C67.0834 71.944 67.0354 72.028 66.9564 72.074L64.0664 73.74C63.9874 73.786 63.8904 73.786 63.8124 73.74L60.9224 72.074C60.8434 72.028 60.7954 71.944 60.7954 71.854V68.516C60.7954 68.426 60.8444 68.341 60.9224 68.295L63.8124 66.627C63.8914 66.58 63.9884 66.58 64.0674 66.627L66.9584 68.295C67.0364 68.341 67.0844 68.426 67.0844 68.516L67.0834 71.854ZM67.8644 47.138C67.7074 47.051 67.5154 47.053 67.3594 47.144C67.2044 47.236 67.1084 47.402 67.1084 47.582V60.497C67.1084 60.623 67.0404 60.741 66.9314 60.805C66.8214 60.868 66.6854 60.868 66.5754 60.805L64.4674 59.59C64.1534 59.409 63.7664 59.409 63.4524 59.59L55.0344 64.448C54.7194 64.63 54.5254 64.966 54.5254 65.329V75.048C54.5254 75.411 54.7194 75.746 55.0334 75.929L63.4514 80.79C63.7654 80.972 64.1534 80.972 64.4684 80.79L72.8884 75.929C73.2024 75.746 73.3964 75.411 73.3964 75.048V50.821C73.3964 50.453 73.1964 50.113 72.8754 49.933L67.8644 47.138Z" fill="#404137"/>
<path d="M38.2375 59.407C38.5515 59.225 38.9395 59.225 39.2535 59.407L47.6715 64.264C47.9855 64.446 48.1795 64.782 48.1795 65.145V74.867C48.1795 75.23 47.9855 75.566 47.6715 75.748L39.2545 80.609C38.9405 80.79 38.5525 80.79 38.2375 80.609L29.8225 75.748C29.5085 75.566 29.3145 75.23 29.3145 74.867V65.144C29.3145 64.782 29.5085 64.446 29.8225 64.264L38.2375 59.407Z" fill="#83CD29"/>
<path d="M22.9294 65.0641C22.9294 64.6981 22.7374 64.3621 22.4214 64.1811L14.0064 59.3381C13.8624 59.2541 13.7034 59.2111 13.5424 59.2051H13.4554C13.2954 59.2111 13.1354 59.2541 12.9914 59.3381L4.57541 64.1811C4.26241 64.3621 4.06641 64.6981 4.06641 65.0641L4.08441 78.1041C4.08441 78.2861 4.17941 78.4551 4.33841 78.5431C4.49441 78.6371 4.68741 78.6371 4.84341 78.5431L9.84341 75.6791C10.1594 75.4911 10.3524 75.1601 10.3524 74.7971V68.7051C10.3524 68.3411 10.5444 68.0061 10.8594 67.8241L12.9894 66.5981C13.1474 66.5051 13.3214 66.4611 13.4974 66.4611C13.6714 66.4611 13.8494 66.5051 14.0044 66.5981L16.1324 67.8241C16.4474 68.0061 16.6414 68.3411 16.6414 68.7051V74.7971C16.6414 75.1601 16.8364 75.4931 17.1504 75.6791L22.1504 78.5431C22.3074 78.6371 22.5034 78.6371 22.6584 78.5431C22.8134 78.4541 22.9104 78.2851 22.9104 78.1041L22.9294 65.0641Z" fill="#404137"/>
</svg>
