<svg width="128" height="128" viewBox="0 0 128 128" fill="none" xmlns="http://www.w3.org/2000/svg">
<path d="M98.667 50.7204C94.6673 49.3429 91.1368 46.866 88.4803 43.5738C85.5526 39.9057 81.8246 36.9558 77.5817 34.9499C73.3387 32.944 68.6931 31.9351 64.0003 32.0004C57.6876 31.5534 51.4381 33.5004 46.4964 37.4538C41.5546 41.4072 38.2832 47.0769 37.3337 53.3338C39.2039 50.2044 42.0187 47.7491 45.3731 46.3211C48.7274 44.8931 52.4483 44.5661 56.0003 45.3871C59.9933 46.8047 63.5181 49.2961 66.187 52.5871C69.1308 56.2259 72.8658 59.1453 77.1079 61.123C81.35 63.1008 85.9873 64.0849 90.667 64.0004C96.9797 64.4475 103.229 62.5005 108.171 58.5471C113.113 54.5937 116.384 48.924 117.334 42.6671C115.497 45.8339 112.691 48.3263 109.33 49.7764C105.969 51.2266 102.231 51.5575 98.667 50.7204ZM29.3337 77.2804C33.3334 78.658 36.8639 81.1349 39.5203 84.4271C42.4481 88.0952 46.176 91.045 50.419 93.051C54.662 95.0569 59.3075 96.0658 64.0003 96.0004C70.313 96.4475 76.5625 94.5005 81.5043 90.5471C86.446 86.5937 89.7174 80.924 90.667 74.6671C88.7967 77.7965 85.9819 80.2518 82.6276 81.6798C79.2732 83.1078 75.5523 83.4348 72.0003 82.6138C68.0073 81.1961 64.4825 78.7048 61.8137 75.4138C58.862 71.784 55.1254 68.871 50.8852 66.8941C46.6449 64.9172 42.0115 63.9278 37.3337 64.0004C31.0209 63.5534 24.7714 65.5004 19.8297 69.4538C14.8879 73.4072 11.6165 79.0769 10.667 85.3338C12.5033 82.167 15.3092 79.6745 18.6704 78.2244C22.0316 76.7743 25.77 76.4434 29.3337 77.2804Z" fill="white"/>
</svg>
